<?xml version="1.0" encoding="iso-8859-1"?>
<!-- Generator: Adobe Illustrator 19.0.0, SVG Export Plug-In . SVG Version: 6.00 Build 0)  -->
<svg version="1.1" id="Layer_1" xmlns="http://www.w3.org/2000/svg" xmlns:xlink="http://www.w3.org/1999/xlink" x="0px" y="0px"
	 viewBox="0 0 512 512" style="enable-background:new 0 0 512 512;" xml:space="preserve">
<g>
	<g>
		<path d="M504.017,191.601c-4.41,0-7.983,3.574-7.983,7.983V488.05c0,4.403-3.581,7.983-7.983,7.983H23.95
			c-4.403,0-7.983-3.581-7.983-7.983v-75.576c0-4.409-3.574-7.983-7.983-7.983c-4.409,0-7.983,3.574-7.983,7.983v75.576
			C0,501.257,10.743,512,23.95,512h464.1c13.206,0,23.95-10.743,23.95-23.95V199.584C512,195.175,508.427,191.601,504.017,191.601z"
			/>
	</g>
</g>
<g>
	<g>
		<path d="M488.05,0H23.95C10.743,0,0,10.743,0,23.95v39.03v309.045c0,4.409,3.574,7.983,7.983,7.983
			c4.409,0,7.983-3.574,7.983-7.983V70.964h480.067v92.429c0,4.409,3.573,7.983,7.983,7.983c4.41,0,7.983-3.574,7.983-7.983V62.98
			V23.95C512,10.743,501.255,0,488.05,0z M496.033,54.997H15.967V23.95c0-4.403,3.581-7.983,7.983-7.983h464.1
			c4.403,0,7.983,3.581,7.983,7.983V54.997z"/>
	</g>
</g>
<g>
	<g>
		<path d="M459.31,31.933H335.834c-4.41,0-7.983,3.574-7.983,7.983c0,4.409,3.573,7.983,7.983,7.983H459.31
			c4.41,0,7.983-3.574,7.983-7.983C467.293,35.508,463.72,31.933,459.31,31.933z"/>
	</g>
</g>
<g>
	<g>
		<path d="M310.287,31.933h-29.805c-4.41,0-7.983,3.574-7.983,7.983c0,4.409,3.573,7.983,7.983,7.983h29.805
			c4.41,0,7.983-3.574,7.983-7.983C318.27,35.508,314.697,31.933,310.287,31.933z"/>
	</g>
</g>
<g>
	<g>
		<path d="M247.246,259.386L217.68,141.123v-28.823c0-4.409-3.574-7.983-7.983-7.983H107.509c-4.409,0-7.983,3.574-7.983,7.983
			v28.823L69.96,259.386c-0.597,2.384-0.061,4.911,1.452,6.85s3.834,3.07,6.293,3.07h80.898h80.898c2.459,0,4.779-1.133,6.293-3.07
			C247.308,264.298,247.843,261.771,247.246,259.386z M115.493,120.283h86.22v13.838h-86.22V120.283z M158.603,253.339H87.93
			l25.813-103.252h13.346l-8.164,32.658c-1.07,4.277,1.531,8.611,5.809,9.681c0.649,0.163,1.301,0.241,1.943,0.241
			c3.577,0,6.832-2.422,7.739-6.049l9.133-36.531h7.072v43.11c0,4.409,3.574,7.983,7.983,7.983s7.983-3.574,7.983-7.983v-43.11
			h7.072l9.133,36.531c0.907,3.628,4.162,6.049,7.739,6.049c0.641,0,1.292-0.078,1.943-0.241c4.278-1.069,6.878-5.404,5.809-9.681
			l-8.164-32.658h13.346l25.813,103.252H158.603z"/>
	</g>
</g>
<g>
	<g>
		<path d="M462.283,385.67c-1.315-2.805-4.133-4.597-7.231-4.597h-40.449c-2.325,0-4.534,1.013-6.05,2.774l-9.384,10.898v-16.176
			c0-0.002,0-0.004,0-0.006v-61.888c0-4.409-3.573-7.983-7.983-7.983H280.482c-4.41,0-7.983,3.574-7.983,7.983v61.888
			c0,0.002,0,0.004,0,0.006v87.128c0,4.409,3.573,7.983,7.983,7.983h40.449c3.935,0,7.284-2.868,7.889-6.756l6.406-41.181
			l5.468,41.009c0.529,3.966,3.913,6.929,7.914,6.929h42.578c2.972,0,5.559-1.318,6.933-3.726
			c0.345-0.293,63.068-75.788,63.068-75.788C463.169,391.788,463.597,388.475,462.283,385.67z M288.466,324.657h10.832
			l-10.832,20.942V324.657z M327.85,369.277l-13.757,88.437h-25.628v-77.358l28.809-55.698h10.575V369.277z M383.202,457.713
			h-27.605l-11.779-88.349v-44.707h10.575l28.809,55.698V457.713z M383.202,345.599l-10.832-20.942h10.832V345.599z
			 M399.168,443.646v-24.747c0.474-0.35,19.095-21.86,19.095-21.86h19.743L399.168,443.646z"/>
	</g>
</g>
<g>
	<g>
		<path d="M249.081,457.713H227.26v-49.497c0-22.011-17.906-39.917-39.917-39.917h-57.48c-22.011,0-39.917,17.906-39.917,39.917
			v49.497H68.125c-4.409,0-7.983,3.574-7.983,7.983s3.574,7.983,7.983,7.983h180.956c4.409,0,7.983-3.574,7.983-7.983
			S253.49,457.713,249.081,457.713z M211.293,457.713h-105.38v-49.497c0-13.207,10.744-23.95,23.95-23.95h57.48
			c13.207,0,23.95,10.743,23.95,23.95V457.713z"/>
	</g>
</g>
<g>
	<g>
		<path d="M396.437,164.299c-3.662-23.103-23.713-40.823-47.83-40.823s-44.168,17.72-47.83,40.823
			c-11.215,1.987-19.763,11.799-19.763,23.576v57.48c0,13.207,10.745,23.95,23.95,23.95h87.285c13.206,0,23.95-10.743,23.95-23.95
			v-57.48C416.2,176.098,407.652,166.286,396.437,164.299z M348.607,139.443c15.147,0,27.902,10.428,31.469,24.482h-62.94
			C320.705,149.871,333.46,139.443,348.607,139.443z M400.233,245.356c0,4.403-3.581,7.983-7.983,7.983h-87.285
			c-4.403,0-7.983-3.581-7.983-7.983v-20.001c2.498,0.887,5.185,1.373,7.983,1.373h35.659v6.919c0,4.409,3.573,7.983,7.983,7.983
			c4.41,0,7.983-3.574,7.983-7.983v-6.919h35.659c2.798,0,5.485-0.488,7.983-1.373V245.356z M400.233,202.778
			c0,4.403-3.581,7.983-7.983,7.983h-87.285c-4.403,0-7.983-3.581-7.983-7.983v-14.902c0-4.403,3.581-7.983,7.983-7.983h87.285
			c4.403,0,7.983,3.581,7.983,7.983V202.778z"/>
	</g>
</g>
<g>
</g>
<g>
</g>
<g>
</g>
<g>
</g>
<g>
</g>
<g>
</g>
<g>
</g>
<g>
</g>
<g>
</g>
<g>
</g>
<g>
</g>
<g>
</g>
<g>
</g>
<g>
</g>
<g>
</g>
</svg>
