<?xml version="1.0" encoding="iso-8859-1"?>
<!-- Generator: Adobe Illustrator 16.0.0, SVG Export Plug-In . SVG Version: 6.00 Build 0)  -->
<!DOCTYPE svg PUBLIC "-//W3C//DTD SVG 1.1//EN" "http://www.w3.org/Graphics/SVG/1.1/DTD/svg11.dtd">
<svg version="1.1" id="Capa_1" xmlns="http://www.w3.org/2000/svg" xmlns:xlink="http://www.w3.org/1999/xlink" x="0px" y="0px"
	 width="71.68px" height="71.68px" viewBox="0 0 71.68 71.68" style="enable-background:new 0 0 71.68 71.68;" xml:space="preserve"
	>
<g>
	<g>
		<path d="M21.056,15.68h-6.048c-0.896,0-1.344,0.672-1.344,1.344v6.049c0,0.896,0.672,1.344,1.344,1.344h6.048
			c0.896,0,1.344-0.672,1.344-1.344v-6.049C22.4,16.352,21.951,15.68,21.056,15.68z"/>
		<rect x="25.76" y="18.145" width="32.256" height="4.256"/>
		<path d="M21.056,31.36h-6.048c-0.896,0-1.344,0.672-1.344,1.345v6.049c0,0.895,0.672,1.344,1.344,1.344h6.048
			c0.896,0,1.344-0.672,1.344-1.344v-6.049C22.4,32.032,21.951,31.36,21.056,31.36z"/>
		<path d="M21.056,47.039h-6.048c-0.896,0-1.344,0.674-1.344,1.346v6.047c0,0.896,0.672,1.344,1.344,1.344h6.048
			c0.896,0,1.344-0.672,1.344-1.344v-6.047C22.4,47.713,21.951,47.039,21.056,47.039z M21.28,54.656
			c0,0.225-0.224,0.225-0.224,0.225h-6.048c-0.225,0-0.225-0.225-0.225-0.225v-6.049c0-0.224,0.225-0.224,0.225-0.224h6.048
			c0.224,0,0.224,0.224,0.224,0.224V54.656z"/>
		<path d="M41.664,33.825h-15.68v4.255H40.32C40.096,37.408,40.096,35.392,41.664,33.825z"/>
		<path d="M25.76,49.504v4.256h15.68c0,0-1.344-2.016-1.565-4.256H25.76L25.76,49.504z"/>
		<path d="M64.96,0H6.72C2.911,0,0,2.912,0,6.72v58.239c0,3.809,2.911,6.721,6.72,6.721h58.24c3.808,0,6.72-2.912,6.72-6.721V6.72
			C71.68,2.912,68.768,0,64.96,0z M67.198,64.959c0,1.346-0.446,2.24-2.464,2.24H32.031H6.72c-1.344,0-2.24-0.896-2.24-2.24V6.72
			c0-1.345,0.896-2.24,2.24-2.24h58.24c1.345,0,2.238,0.896,2.238,2.24V64.959L67.198,64.959z"/>
		<path d="M71.232,64.959c-0.448-0.895,0-0.672-0.896-0.895c-3.81-1.568-7.168-2.24-10.978-3.584
			c-0.225-0.226-1.344-0.896-1.344-2.689c0-0.672-0.225-1.119-1.119-1.119c-0.226,0-0.226,0-0.226-0.672
			c-0.226-1.793-0.226-2.688-0.226-2.912c0-0.224,0.226-0.447,0.449-0.672c1.344-1.793,1.566-4.031,1.791-5.152
			c0,0,0.225,0.226,0.447-0.447c0.225-0.895,0.448-1.121,0.672-2.016c0.225-0.672,0.448-2.24-0.447-2.24
			c-0.447,0.224-0.447,0-0.447-0.672v-4.93c-0.225-1.792-1.119-2.911-2.016-3.359c-1.121-0.896-1.568-1.119-2.24-1.568
			c-0.447-0.447-0.447-0.896,0-1.566c0.225-0.225,0.672-0.448,0.896-0.673h-0.225c-0.226,0-3.138,0.448-4.257,0.673
			c-2.238,0.447-4.256,1.119-6.049,2.688c-1.119,0.896-2.24,2.239-2.24,3.808c0,0.896,0,3.584,0,4.929c0,0.448,0,0.674-0.445,0.448
			c-1.12-0.228-0.447,1.791-0.447,2.017c0.223,0.895,0.447,1.344,0.672,2.24c0.224,0.672,0.447,0.446,0.447,0.446
			c0.225,1.344,0.896,3.81,1.792,5.149c0.224,0.226,0.224,0.449,0.224,0.673C44.8,53.76,44.8,54.881,44.8,55.775
			c0,0.226-0.225,0.449-0.448,0.449c-0.896,0-0.896,0.672-0.896,1.119c0,1.344-0.896,2.465-1.347,2.688
			c-1.791,1.346-8.511,3.36-10.75,4.032c-1.567,0.447-1.792,0.896-2.24,1.568L28,68.096c8.512,0,36.062,0,42.109,0L71.232,64.959z"
			/>
	</g>
</g>
<g>
</g>
<g>
</g>
<g>
</g>
<g>
</g>
<g>
</g>
<g>
</g>
<g>
</g>
<g>
</g>
<g>
</g>
<g>
</g>
<g>
</g>
<g>
</g>
<g>
</g>
<g>
</g>
<g>
</g>
</svg>
